<?xml version="1.0" encoding="utf-8"?>
<!-- Generator: Adobe Illustrator 24.2.1, SVG Export Plug-In . SVG Version: 6.00 Build 0)  -->
<svg version="1.1" id="Layer_1" xmlns="http://www.w3.org/2000/svg" xmlns:xlink="http://www.w3.org/1999/xlink" x="0px" y="0px"
	 width="780px" height="440px" viewBox="0 0 780 440" style="enable-background:new 0 0 780 440;" xml:space="preserve">
<style type="text/css">
	.st0{fill:#FF4500;}
	.st1{fill:#FFFFFF;}
	.st2{fill:#A1D2F8;}
	.st3{fill:#56ADF5;stroke:#162020;stroke-miterlimit:10;}
	.st4{fill:#2B87D3;stroke:#162020;stroke-miterlimit:10;}
	.st5{fill:#FFB8B1;stroke:#162020;stroke-miterlimit:10;}
	.st6{fill:#F76054;stroke:#162020;stroke-miterlimit:10;}
	.st7{fill:#FFFFFF;stroke:#002138;stroke-linecap:round;stroke-linejoin:round;stroke-miterlimit:10;}
	.st8{fill:none;stroke:#002138;stroke-linecap:round;stroke-linejoin:round;stroke-miterlimit:10;}
	.st9{fill:none;stroke:#002138;stroke-linecap:round;stroke-linejoin:round;stroke-dasharray:9,7;}
	.st10{fill:none;stroke:#002138;stroke-linecap:round;stroke-linejoin:round;}
</style>
<symbol  id="icon_2" viewBox="-24 -24 48 48">
	<g>
		<circle class="st0" cx="0" cy="0" r="24"/>
		<path class="st1" d="M16,0c0,1.9-1.6,3.5-3.5,3.5c-0.9,0-1.8-0.4-2.4-1c-2.4,1.7-5.7,2.8-9.4,3L2.3,13l5.2-1.1
			c0.1-1.3,1.1-2.4,2.5-2.4c1.4,0,2.5,1.1,2.5,2.5s-1.1,2.5-2.5,2.5c-1,0-1.8-0.6-2.2-1.4L2,14.3c-0.2,0-0.3,0-0.5-0.1
			c-0.1-0.1-0.2-0.2-0.3-0.4l-1.8-8.4c-3.7-0.1-7.1-1.2-9.5-3c-0.6,0.6-1.5,1-2.4,1C-14.4,3.5-16,1.9-16,0c0-1.4,0.8-2.6,2.1-3.2
			C-14-3.5-14-3.9-14-4.3C-14-9.6-7.7-14,0-14s14,4.4,14,9.8c0,0.4,0,0.7-0.1,1.1C15.1-2.7,16-1.4,16,0z M-8-2.5C-8-1.1-6.9,0-5.5,0
			C-4.1,0-3-1.1-3-2.5C-3-3.9-4.1-5-5.5-5C-6.9-5-8-3.9-8-2.5z M5.9-9.1c-1.7-1.7-5-1.8-5.9-1.8c-1,0-4.2,0.1-5.9,1.8
			c-0.3,0.3-0.3,0.7,0,0.9c0.3,0.3,0.7,0.3,0.9,0c1.1-1.1,3.4-1.5,5-1.5s3.9,0.4,5,1.5c0.3,0.3,0.7,0.3,0.9,0
			C6.2-8.4,6.2-8.9,5.9-9.1z M5.5-5C4.1-5,3-3.9,3-2.5C3-1.1,4.1,0,5.5,0S8-1.1,8-2.5C8-3.9,6.9-5,5.5-5z"/>
	</g>
</symbol>
<rect x="-3.1" y="-7.9" class="st2" width="789.1" height="455.9"/>
<g>
	<g>
		<g>
			<path class="st3" d="M538.5,315.4H244.4V124.5c0-11,9-20,20-20h254.1c11,0,20,9,20,20V315.4z"/>
		</g>
	</g>
	<g>
		<g>
			<path class="st3" d="M538.5,336.5H244.3c-12.3,0-22.2-9.9-22.2-22.2v0h338.6v0C560.7,326.5,550.8,336.5,538.5,336.5z"/>
		</g>
	</g>
	<g>
		<g>
			<path class="st4" d="M420.3,314.8L420.3,314.8c0,4.2-3.4,7.6-7.6,7.6h-42.6c-4.2,0-7.6-3.4-7.6-7.6l0,0"/>
		</g>
	</g>
	<g>
		<g>
			<rect x="257.4" y="118.9" class="st5" width="268.1" height="181.9"/>
		</g>
	</g>
</g>
<g>
	<rect x="152.6" y="235.1" class="st6" width="16.3" height="42.9"/>
	<rect x="179.1" y="221.8" class="st6" width="16.3" height="56.2"/>
	<rect x="205.7" y="207.5" class="st6" width="16.3" height="70.5"/>
</g>
<g>
	<g>
		<polyline class="st6" points="308.1,171.6 284,155 208.4,155 208.4,81.2 308.4,81.2 308.4,171.6 		"/>
	</g>
	<g>
		<circle class="st7" cx="233.3" cy="103.2" r="8.3"/>
		<g>
			<line class="st8" x1="225.1" y1="119.5" x2="291.3" y2="119.5"/>
			<line class="st8" x1="225.1" y1="128.6" x2="291.3" y2="128.6"/>
			<line class="st8" x1="225.1" y1="137.8" x2="291.3" y2="137.8"/>
		</g>
	</g>
</g>
<g>
	<g>
		<polyline class="st6" points="475.8,265.2 499.8,248.7 575.4,248.7 575.4,174.9 475.4,174.9 475.4,265.2 		"/>
	</g>
	<g>
		<circle class="st7" cx="500.4" cy="196.9" r="8.3"/>
		<g>
			<line class="st8" x1="492.1" y1="213.2" x2="558.4" y2="213.2"/>
			<line class="st8" x1="492.1" y1="222.3" x2="558.4" y2="222.3"/>
			<line class="st8" x1="492.1" y1="231.4" x2="558.4" y2="231.4"/>
		</g>
	</g>
</g>
<g>
	
		<use xlink:href="#icon_2"  width="48" height="48" id="XMLID_50_" x="-24" y="-24" transform="matrix(2.6042 0 0 -2.6042 391.4219 210.3194)" style="overflow:visible;"/>
</g>
<circle class="st8" cx="570" cy="370.1" r="4.9"/>
<g>
	<line class="st8" x1="584.3" y1="327.5" x2="595.5" y2="327.5"/>
	<line class="st8" x1="589.9" y1="321.9" x2="589.9" y2="333.1"/>
</g>
<rect x="616.8" y="358.4" transform="matrix(0.7071 -0.7071 0.7071 0.7071 -74.5975 545.5076)" class="st8" width="8.8" height="8.8"/>
<g>
	<line class="st9" x1="187.8" y1="364.3" x2="187.8" y2="316.4"/>
	<circle class="st10" cx="187.8" cy="310.1" r="5.9"/>
	<g>
		<line class="st10" x1="251.5" y1="374.5" x2="241.9" y2="365"/>
		<line class="st10" x1="251.5" y1="365" x2="241.9" y2="374.5"/>
	</g>
	<line class="st9" x1="193.7" y1="369.7" x2="241.6" y2="369.7"/>
</g>
<g>
	<line class="st9" x1="570.7" y1="82.2" x2="570.7" y2="130.1"/>
	
		<ellipse transform="matrix(0.9999 -1.068118e-02 1.068118e-02 0.9999 -1.4248 6.1034)" class="st10" cx="570.7" cy="136.4" rx="5.9" ry="5.9"/>
	<g>
		<line class="st10" x1="507" y1="72" x2="516.6" y2="81.6"/>
		<line class="st10" x1="507" y1="81.6" x2="516.6" y2="72"/>
	</g>
	<line class="st9" x1="564.8" y1="76.8" x2="516.9" y2="76.8"/>
</g>
</svg>
